Coordinates
version=1
nRows=11
nColumns=36
inDegrees=yes

Units are S.I. units (second, meters, Newtons, ...)
If the header above contains a line with 'inDegrees', this indicates whether rotational values are in degrees (yes) or radians (no).

endheader
time	pelvis_tilt	pelvis_list	pelvis_rotation	pelvis_tx	pelvis_ty	pelvis_tz	hip_flexion_r	hip_adduction_r	hip_rotation_r	knee_angle_r	knee_angle_r_beta	ankle_angle_r	subtalar_angle_r	mtp_angle_r	hip_flexion_l	hip_adduction_l	hip_rotation_l	knee_angle_l	knee_angle_l_beta	ankle_angle_l	subtalar_angle_l	mtp_angle_l	lumbar_extension	lumbar_bending	lumbar_rotation	arm_flex_r	arm_add_r	arm_rot_r	elbow_flex_r	pro_sup_r	arm_flex_l	arm_add_l	arm_rot_l	elbow_flex_l	pro_sup_l
      0.00000000	      4.08107875	     -1.13683183	      5.89192711	      1.20966958	      0.97384380	      0.15838532	     -3.40103605	      5.87759227	      5.49638750	      4.23798320	      0.07396676	      8.03295397	     -3.58393447	     -6.65244636	     22.09051621	     -5.71391379	      1.45237979	     12.45900758	      0.21745070	     -0.78701863	     -9.63487879	     -6.65244636	     -8.64007969	      3.33518666	     -2.37326686	     19.57729398	    -17.29262599	     40.81125680	    139.29202585	     85.75650874	     33.98918231	      0.37463040	     51.09911870	    117.92895667	     97.67428466
      0.01666670	      3.91090700	     -3.15184983	      3.70264351	      1.21022960	      0.97001106	      0.15814078	     -3.10685843	      8.47297615	     10.99806368	      4.00371697	      0.06987804	      7.41884091	     -7.95517193	     -6.79587550	     22.16139363	     -8.78304668	      0.60482831	      9.16787889	      0.16000967	      1.87175990	     -4.54472575	     -6.79587550	     -7.81037765	      7.48622825	     -1.42383874	     26.62200733	    -19.00708711	     51.38118489	    140.84665408	     97.42966952	     34.37215940	     -0.81611279	     49.13581425	    122.00129761	    103.60956506
      0.03333330	      4.02761078	     -2.70259559	      1.54987124	      1.21080406	      0.97291099	      0.16139959	     -2.87519090	      8.00242418	     11.48936530	      4.95529736	      0.08648625	      8.19301703	     -7.63992085	     -6.82014456	     21.14110762	     -9.30870543	     -2.48843461	      6.54347693	      0.11420522	      1.00047662	     -1.95024374	     -6.82014456	     -7.76836639	      7.04727826	     -0.06104595	     27.81592019	    -16.45239214	     52.00451605	    139.72919267	     97.89445734	     34.82388793	     -1.45804413	     50.16793466	    123.09949036	    104.03525180
      0.05000000	      3.66198223	     -1.97247713	      0.87673526	      1.21166699	      0.97116631	      0.16230213	     -2.29585205	      7.21017422	     10.93699650	      5.43172919	      0.09480156	      9.89479108	     -6.15604728	     -7.03833963	     21.05454210	     -8.93247857	     -3.68633859	      5.39380763	      0.09413970	      1.64657497	      0.20701891	     -7.03833963	     -6.90186302	      6.53194138	     -1.08154881	     29.11718517	    -14.03960405	     54.65555805	    137.88129876	    100.09055687	     34.16232179	     -2.34044529	     49.58568676	    124.56938854	    106.89836831
      0.06666670	      3.46718701	     -1.43311216	      0.45823774	      1.21171523	      0.97260273	      0.16247998	     -1.65189728	      6.75345460	     10.72481583	      6.43655298	      0.11233904	     10.87662680	     -5.48112960	     -7.11313122	     20.84687973	     -8.57425278	     -4.88755480	      5.13340891	      0.08959489	      1.96366609	      1.84566056	     -7.11313122	     -6.63024376	      5.94744361	     -0.85232060	     28.90727684	    -12.94116810	     56.21848447	    137.23672422	     98.78597705	     34.47643475	     -2.18919887	     50.11264463	    124.39324097	    105.53602217
      0.08333330	      3.59261176	     -0.92696687	      0.53157945	      1.21136113	      0.97292413	      0.16244519	     -1.30578280	      6.28556513	     10.47469508	      7.27589950	      0.12698840	     11.20431992	     -5.20632467	     -7.20920655	     20.57992112	     -8.07657705	     -5.64599804	      5.37315457	      0.09377924	      1.22615599	      2.40506976	     -7.20920655	     -6.81874714	      5.54027073	     -1.24135052	     29.14612417	    -11.89796132	     57.66511651	    136.11255111	     95.52746144	     34.69735040	     -2.44327172	     50.30205279	    124.47156755	    101.97625146
      0.10000000	      3.31840348	     -0.58775979	      0.53666935	      1.21174201	      0.97380499	      0.16317910	     -0.43272829	      6.02667495	     10.49715396	      8.25301023	      0.14404220	     11.21951735	     -5.37235791	     -7.25897590	     20.79547859	     -7.74751229	     -6.52108669	      5.97947729	      0.10436157	      0.32783902	      2.77923634	     -7.25897590	     -6.62280462	      5.41886409	     -1.88192381	     29.45094537	    -10.95169158	     58.65094567	    135.10948731	     98.95195892	     34.18192456	     -2.88243238	     49.44890943	    125.19358540	    105.93493386
      0.11666670	      3.29040787	     -0.35122164	      0.63101159	      1.21086420	      0.96997969	      0.16298046	      0.04474603	      5.87463303	     10.65284472	      9.00902246	      0.15723710	     11.10047020	     -5.54509772	     -7.32099438	     20.81120498	     -7.53510811	     -7.05713822	      6.60413252	      0.11526386	     -0.62600954	      2.76519847	     -7.32099438	     -6.64874313	      5.26410268	     -2.12116328	     29.59561818	    -10.56069498	     58.61008187	    134.96015150	     98.51180491	     34.31899605	     -3.03725467	     49.22244205	    125.40453970	    105.43790168
      0.13333330	      3.24105265	     -0.18797674	      0.66141330	      1.21073013	      0.97016046	      0.16313082	      0.43815904	      5.78735846	     10.96603706	      9.59480580	      0.16746095	     10.90202383	     -5.70976863	     -7.41399601	     20.77187119	     -7.37163888	     -7.38630255	      7.04927888	      0.12303313	     -1.32768639	      2.78486527	     -7.41399601	     -6.67634868	      5.27114382	     -2.54571746	     29.95884376	    -10.04342638	     59.17763914	    134.83875108	     97.13250612	     34.16914215	     -3.29796258	     48.77076566	    125.82664814	    105.28266400
      0.15000000	      2.89761345	     -0.20546179	      0.76254034	      1.21061270	      0.97011385	      0.16297126	      1.19315410	      5.89048061	     10.96033290	     10.11778187	      0.17658861	     10.84642962	     -5.43721028	     -7.41975754	     21.23051491	     -7.39620040	     -7.45034221	      7.52409684	      0.13132026	     -2.05362186	      2.71226190	     -7.41975754	     -6.22209348	      5.36754229	     -2.60705056	     29.67150535	    -10.07476844	     58.99940143	    134.63006284	     96.02358441	     34.04205646	     -3.33540400	     48.74186785	    125.48755433	    104.33497027
      0.16666670	      3.15676265	     -0.13493738	      0.63639442	      1.21011687	      0.97097550	      0.16316407	      1.24925094	      5.88727807	     11.27133672	     10.47391395	      0.18280428	     10.42696349	     -5.53216106	     -7.44470445	     20.87565262	     -7.33595384	     -7.59027984	      7.58632170	      0.13240629	     -2.19521590	      3.05118471	     -7.44470445	     -6.93913471	      5.50790572	     -2.91011687	     30.18444107	     -9.87813229	     59.56688778	    134.92192021	     94.62531788	     34.03721451	     -3.80447889	     48.63183185	    126.46862896	    104.63221713
